<?xml version="1.0" standalone="no"?>
<!DOCTYPE svg PUBLIC "-//W3C//DTD SVG 20010904//EN"
 "http://www.w3.org/TR/2001/REC-SVG-20010904/DTD/svg10.dtd">
<svg version="1.0" xmlns="http://www.w3.org/2000/svg"
 width="924.000000pt" height="924.000000pt" viewBox="0 0 924.000000 924.000000"
 preserveAspectRatio="xMidYMid meet">
<metadata>
Created by potrace 1.14, written by Peter Selinger 2001-2017
</metadata>
<g transform="translate(0.000000,924.000000) scale(0.100000,-0.100000)"
fill="#000000" stroke="none">
<path d="M4417 9223 c-2 -5 -3 -315 -3 -690 1 -708 2 -688 -34 -698 -35 -9
-129 -63 -176 -101 -117 -95 -180 -185 -228 -326 -27 -82 -29 -104 -30 -455
-1 -188 -4 -344 -6 -346 -3 -3 -37 -21 -76 -40 -81 -41 -257 -157 -324 -214
-200 -171 -356 -386 -437 -603 -13 -36 -26 -72 -28 -80 -47 -200 -46 -194 -48
-780 -1 -272 -6 -474 -11 -472 -5 2 -12 0 -15 -5 -3 -5 -49 -28 -101 -51 -52
-22 -135 -60 -185 -83 -49 -24 -92 -43 -95 -44 -10 -3 -57 -24 -120 -53 -36
-16 -117 -53 -180 -82 -63 -28 -134 -61 -157 -72 l-43 -20 0 -2004 0 -2004
228 2 227 3 0 1851 c0 1719 1 1852 17 1867 9 9 21 17 27 17 6 0 19 4 29 10 9
5 44 21 77 36 33 15 94 42 135 61 41 19 89 41 105 48 17 7 55 24 85 38 121 55
169 77 265 120 55 25 132 59 170 77 39 17 86 39 105 47 19 9 64 29 100 45 36
16 74 34 85 38 11 5 69 32 129 60 59 27 110 50 111 50 2 0 41 17 87 39 45 21
99 45 118 53 38 16 123 55 295 134 l110 51 54 -24 c29 -13 97 -44 150 -69 53
-25 119 -56 146 -69 28 -13 94 -44 148 -69 53 -25 99 -46 101 -46 2 0 55 -24
117 -54 63 -29 139 -65 169 -79 63 -28 167 -77 290 -135 47 -21 105 -49 130
-60 25 -11 86 -39 135 -62 50 -23 117 -55 150 -70 33 -15 96 -44 140 -65 75
-35 139 -65 263 -121 28 -14 52 -30 53 -37 1 -7 2 -838 3 -1847 l1 -1835 228
-3 227 -2 0 1994 0 1994 -75 36 c-41 20 -77 36 -79 36 -3 0 -56 24 -118 54
-62 30 -228 107 -368 171 -140 65 -257 120 -260 122 -3 3 -5 230 -6 506 -1
459 -4 564 -19 637 -3 14 -8 38 -11 54 -18 102 -145 393 -175 404 -5 2 -9 10
-9 17 0 7 -3 15 -7 17 -5 2 -20 21 -35 43 -99 143 -316 337 -483 430 -27 15
-61 35 -75 44 -14 8 -30 16 -35 17 -6 1 -24 10 -40 20 l-30 19 0 345 c-1 293
-4 355 -18 409 -34 127 -103 242 -196 330 -46 43 -144 107 -187 123 -19 7 -34
19 -35 28 0 8 -1 322 -1 698 l-1 682 -223 0 c-123 0 -225 -3 -227 -7z m308
-1825 c52 -26 87 -64 107 -114 14 -34 17 -85 18 -288 l1 -247 -78 7 c-132 12
-336 6 -364 -11 -10 -7 -11 14 -10 183 0 62 3 117 6 122 3 6 3 10 -2 10 -4 0
-7 30 -6 67 0 38 2 68 3 68 0 0 3 19 5 41 9 109 132 202 245 187 19 -3 53 -14
75 -25z m51 -1101 c12 -3 37 -8 55 -11 159 -26 429 -149 538 -245 13 -12 27
-21 30 -21 13 0 162 -156 205 -214 50 -67 126 -214 126 -243 0 -11 3 -23 7
-27 4 -3 8 -12 9 -19 1 -7 5 -30 9 -52 8 -39 16 -824 9 -836 -2 -4 -41 12 -86
34 -84 40 -169 79 -178 82 -3 1 -47 21 -97 45 l-93 43 0 451 0 451 -38 40
c-87 91 -201 167 -317 210 -115 44 -104 95 -104 -451 1 -262 -1 -478 -4 -480
-2 -3 -47 16 -99 40 -53 25 -102 46 -109 47 -14 2 -39 -8 -166 -66 l-73 -34
-1 27 c-1 15 -1 30 0 35 1 6 1 98 0 177 0 8 0 38 0 65 0 28 0 57 0 65 0 8 0
51 0 95 1 141 0 306 -1 355 0 19 1 40 2 45 1 6 2 29 1 53 -1 52 -12 53 -108
15 -119 -47 -190 -91 -271 -167 -80 -75 -76 -49 -76 -533 -1 -420 -2 -433 -21
-447 -11 -9 -24 -16 -28 -16 -5 0 -32 -11 -60 -24 -29 -13 -74 -34 -102 -46
-27 -13 -87 -40 -131 -60 -45 -21 -90 -41 -100 -44 -19 -6 -20 4 -19 397 1
350 4 410 19 467 10 36 19 70 20 75 3 20 59 130 92 182 77 121 185 227 360
351 41 29 210 112 228 112 9 0 16 4 16 10 0 6 3 9 8 8 4 -1 34 6 67 17 121 37
226 52 345 49 63 -1 125 -5 136 -7z"/>
<path d="M4850 2100 l0 -2100 228 0 228 0 1 1995 0 1995 -104 50 c-57 28 -105
50 -107 50 -2 0 -56 25 -120 55 -64 30 -118 55 -121 55 -3 0 -5 -945 -5 -2100z"/>
<path d="M4320 4150 c-36 -16 -71 -30 -77 -30 -7 0 -13 -4 -13 -10 0 -5 -5
-10 -11 -10 -10 0 -44 -15 -176 -76 -40 -19 -77 -34 -83 -34 -5 0 -11 -3 -11
-7 -1 -5 -2 -902 -3 -1995 l-2 -1988 228 0 227 0 1 232 c0 128 0 240 0 248 1
8 0 83 -1 167 -1 83 2 156 5 162 4 6 4 11 -1 11 -4 0 -7 28 -5 63 2 34 3 68 2
75 0 14 0 146 0 165 1 6 0 80 -1 164 -1 83 2 156 5 162 4 6 4 11 -1 11 -4 0
-7 183 -5 407 1 225 2 415 2 423 -2 162 0 272 5 280 3 5 3 10 -2 10 -4 0 -7
30 -5 67 3 86 3 64 1 240 -1 83 2 156 5 162 4 6 4 11 -1 11 -4 0 -7 30 -5 67
3 84 3 14 1 576 0 262 -4 477 -8 477 -3 0 -35 -14 -71 -30z"/>
<path d="M5769 3772 c-3 -25 -3 -3740 0 -3755 3 -16 22 -17 227 -17 l224 0 1
23 c6 188 -1 3540 -7 3546 -5 4 -43 22 -84 41 -125 56 -303 139 -332 154 -16
8 -28 12 -29 8z"/>
<path d="M3445 3754 c-63 -29 -284 -129 -362 -164 l-53 -24 0 -135 c-1 -203
-1 -3350 0 -3394 l0 -37 227 2 227 3 0 1868 c1 1027 -1 1874 -4 1881 -4 11
-10 11 -35 0z"/>
</g>
</svg>
